<svg width="220" height="46" viewBox="0 0 220 46" fill="none" xmlns="http://www.w3.org/2000/svg">
<path d="M73.0844 22.692C74.1071 22.8827 74.9477 23.394 75.6064 24.226C76.2651 25.058 76.5944 26.0113 76.5944 27.086C76.5944 28.0567 76.3517 28.9147 75.8664 29.66C75.3984 30.388 74.7137 30.96 73.8124 31.376C72.9111 31.792 71.8451 32 70.6144 32H62.7884V13.852H70.2764C71.5071 13.852 72.5644 14.0513 73.4484 14.45C74.3497 14.8487 75.0257 15.4033 75.4764 16.114C75.9444 16.8247 76.1784 17.6307 76.1784 18.532C76.1784 19.5893 75.8924 20.4733 75.3204 21.184C74.7657 21.8947 74.0204 22.3973 73.0844 22.692ZM66.4284 21.34H69.7564C70.6231 21.34 71.2904 21.1493 71.7584 20.768C72.2264 20.3693 72.4604 19.806 72.4604 19.078C72.4604 18.35 72.2264 17.7867 71.7584 17.388C71.2904 16.9893 70.6231 16.79 69.7564 16.79H66.4284V21.34ZM70.0944 29.036C70.9784 29.036 71.6631 28.828 72.1484 28.412C72.6511 27.996 72.9024 27.4067 72.9024 26.644C72.9024 25.864 72.6424 25.2573 72.1224 24.824C71.6024 24.3733 70.9004 24.148 70.0164 24.148H66.4284V29.036H70.0944ZM83.2654 16.79V21.34H89.3754V24.226H83.2654V29.036H90.1554V32H79.6254V13.826H90.1554V16.79H83.2654ZM102.953 32L98.9493 24.928H97.2333V32H93.5933V13.852H100.405C101.809 13.852 103.005 14.1033 103.993 14.606C104.981 15.0913 105.718 15.7587 106.203 16.608C106.706 17.44 106.957 18.376 106.957 19.416C106.957 20.612 106.611 21.6953 105.917 22.666C105.224 23.6193 104.193 24.278 102.823 24.642L107.165 32H102.953ZM97.2333 22.198H100.275C101.263 22.198 102 21.964 102.485 21.496C102.971 21.0107 103.213 20.3433 103.213 19.494C103.213 18.662 102.971 18.0207 102.485 17.57C102 17.102 101.263 16.868 100.275 16.868H97.2333V22.198ZM122.73 13.852V16.79H117.894V32H114.254V16.79H109.418V13.852H122.73ZM129.103 13.852V25.084C129.103 26.3147 129.424 27.2593 130.065 27.918C130.707 28.5593 131.608 28.88 132.769 28.88C133.948 28.88 134.858 28.5593 135.499 27.918C136.141 27.2593 136.461 26.3147 136.461 25.084V13.852H140.127V25.058C140.127 26.6007 139.789 27.9093 139.113 28.984C138.455 30.0413 137.562 30.8387 136.435 31.376C135.326 31.9133 134.087 32.182 132.717 32.182C131.365 32.182 130.135 31.9133 129.025 31.376C127.933 30.8387 127.067 30.0413 126.425 28.984C125.784 27.9093 125.463 26.6007 125.463 25.058V13.852H129.103ZM163.56 13.852V32H159.92V20.196L155.058 32H152.302L147.414 20.196V32H143.774V13.852H147.908L153.68 27.346L159.452 13.852H163.56ZM177.585 22.692C178.608 22.8827 179.448 23.394 180.107 24.226C180.766 25.058 181.095 26.0113 181.095 27.086C181.095 28.0567 180.852 28.9147 180.367 29.66C179.899 30.388 179.214 30.96 178.313 31.376C177.412 31.792 176.346 32 175.115 32H167.289V13.852H174.777C176.008 13.852 177.065 14.0513 177.949 14.45C178.85 14.8487 179.526 15.4033 179.977 16.114C180.445 16.8247 180.679 17.6307 180.679 18.532C180.679 19.5893 180.393 20.4733 179.821 21.184C179.266 21.8947 178.521 22.3973 177.585 22.692ZM170.929 21.34H174.257C175.124 21.34 175.791 21.1493 176.259 20.768C176.727 20.3693 176.961 19.806 176.961 19.078C176.961 18.35 176.727 17.7867 176.259 17.388C175.791 16.9893 175.124 16.79 174.257 16.79H170.929V21.34ZM174.595 29.036C175.479 29.036 176.164 28.828 176.649 28.412C177.152 27.996 177.403 27.4067 177.403 26.644C177.403 25.864 177.143 25.2573 176.623 24.824C176.103 24.3733 175.401 24.148 174.517 24.148H170.929V29.036H174.595ZM187.714 13.852V25.084C187.714 26.3147 188.035 27.2593 188.676 27.918C189.317 28.5593 190.219 28.88 191.38 28.88C192.559 28.88 193.469 28.5593 194.11 27.918C194.751 27.2593 195.072 26.3147 195.072 25.084V13.852H198.738V25.058C198.738 26.6007 198.4 27.9093 197.724 28.984C197.065 30.0413 196.173 30.8387 195.046 31.376C193.937 31.9133 192.697 32.182 191.328 32.182C189.976 32.182 188.745 31.9133 187.636 31.376C186.544 30.8387 185.677 30.0413 185.036 28.984C184.395 27.9093 184.074 26.6007 184.074 25.058V13.852H187.714ZM217.439 13.852V32H213.799V24.278H206.025V32H202.385V13.852H206.025V21.314H213.799V13.852H217.439Z" fill="#34364A"/>
<ellipse cx="22.9981" cy="23" rx="22.9981" ry="23" fill="#2A9D8F"/>
<g clip-path="url(#clip0_1_59)">
<path d="M30.4327 16.9365C30.5598 16.233 30.5216 15.5 30.3224 14.822C30.1231 14.144 29.771 13.5487 29.3067 13.1049C28.8424 12.661 28.2848 12.3868 27.6984 12.3137C27.1119 12.2407 26.5205 12.3719 25.9925 12.6921C25.7955 11.9124 25.3994 11.2304 24.8621 10.7459C24.3248 10.2614 23.6746 10 23.0069 10C22.3392 10 21.689 10.2614 21.1517 10.7459C20.6144 11.2304 20.2182 11.9124 20.0212 12.6921C19.4932 12.3719 18.9018 12.2407 18.3154 12.3137C17.7289 12.3868 17.1714 12.661 16.707 13.1049C16.2427 13.5487 15.8906 14.144 15.6914 14.822C15.4921 15.5 15.4539 16.233 15.5811 16.9365C14.8127 17.1051 14.1239 17.6191 13.6501 18.3773C13.1763 19.1355 12.9519 20.083 13.0211 21.0332C13.0902 21.9834 13.448 22.8676 14.0238 23.5117C14.5997 24.1558 15.352 24.5132 16.1326 24.5134H16.1951C16.3608 25.5059 16.8424 26.3773 17.5339 26.9359C18.2253 27.4944 19.0701 27.6945 19.8822 27.4919C20.6943 27.2894 21.4074 26.7008 21.8645 25.8558C22.3215 25.0108 22.4852 23.9785 22.3194 22.986H23.0694C22.9134 23.9807 23.0871 25.0103 23.5523 25.8484C24.0175 26.6865 24.7361 27.2645 25.55 27.4552C26.3639 27.6458 27.2064 27.4335 27.8922 26.865C28.5781 26.2965 29.051 25.4183 29.207 24.4237C29.6137 24.5363 30.0348 24.5484 30.4453 24.459C30.8559 24.3697 31.2477 24.1809 31.5976 23.9036C31.9475 23.6264 32.2484 23.2663 32.4827 22.8447C32.717 22.4231 32.8798 21.9485 32.9616 21.4487C33.0434 20.949 33.0425 20.4343 32.9591 19.935C32.8756 19.4357 32.7111 18.9619 32.4754 18.5415C32.2398 18.121 31.9376 17.7625 31.5868 17.487C31.2359 17.2115 30.8435 17.0247 30.4327 16.9374V16.9365Z" fill="white"/>
<path d="M20.97 35.5249H25.0615L24.477 20.4972H21.5545L20.97 35.5249Z" fill="white"/>
</g>
<defs>
<clipPath id="clip0_1_59">
<rect width="20.0135" height="25.5249" fill="white" transform="translate(13.0088 10)"/>
</clipPath>
</defs>
</svg>
