<svg width="98" height="101" viewBox="0 0 98 101" fill="none" xmlns="http://www.w3.org/2000/svg">
<path d="M96 50.0381C96 76.882 74.8088 98.5761 48.75 98.5761C22.6912 98.5761 1.5 76.882 1.5 50.0381C1.5 23.1941 22.6912 1.5 48.75 1.5C74.8088 1.5 96 23.1941 96 50.0381Z" fill="#2A9D8F" stroke="white" stroke-width="3"/>
<g clip-path="url(#clip0_1_38)">
<path d="M64.5094 36.8463C64.779 35.316 64.698 33.7212 64.2756 32.2462C63.8533 30.7712 63.1069 29.4761 62.1227 28.5105C61.1385 27.5449 59.9566 26.9482 58.7134 26.7893C57.4703 26.6304 56.2167 26.9158 55.0974 27.6125C54.6799 25.9162 53.8401 24.4323 52.7012 23.3783C51.5623 22.3243 50.1841 21.7556 48.7687 21.7556C47.3533 21.7556 45.9751 22.3243 44.8362 23.3783C43.6972 24.4323 42.8574 25.9162 42.4399 27.6125C41.3206 26.9158 40.067 26.6304 38.8239 26.7893C37.5808 26.9482 36.3989 27.5449 35.4146 28.5105C34.4304 29.4761 33.684 30.7712 33.2617 32.2462C32.8394 33.7212 32.7583 35.316 33.0279 36.8463C31.3992 37.2132 29.939 38.3315 28.9347 39.981C27.9304 41.6305 27.4547 43.6918 27.6013 45.7591C27.748 47.8264 28.5062 49.75 29.7269 51.1513C30.9475 52.5525 32.5422 53.33 34.1969 53.3306H34.3294C34.6807 55.4898 35.7016 57.3855 37.1673 58.6008C38.633 59.816 40.4236 60.2511 42.1452 59.8104C43.8667 59.3698 45.3781 58.0894 46.347 56.251C47.3159 54.4126 47.6628 52.1668 47.3115 50.0076H48.9011C48.5704 52.1715 48.9387 54.4115 49.9248 56.2349C50.9109 58.0583 52.4341 59.3157 54.1594 59.7305C55.8846 60.1453 57.6706 59.6834 59.1244 58.4466C60.5782 57.2098 61.5807 55.2993 61.9114 53.1353C62.7735 53.3804 63.666 53.4065 64.5363 53.2122C65.4065 53.0179 66.237 52.607 66.9787 52.0039C67.7204 51.4007 68.3584 50.6174 68.8549 49.7002C69.3515 48.7829 69.6967 47.7503 69.8701 46.6631C70.0436 45.5759 70.0417 44.4562 69.8647 43.37C69.6877 42.2837 69.3392 41.2528 68.8396 40.3382C68.34 39.4235 67.6995 38.6435 66.9558 38.0442C66.2122 37.4448 65.3804 37.0383 64.5094 36.8484V36.8463Z" fill="white"/>
<path d="M44.451 77.2866H53.1232L51.8843 44.593H45.6898L44.451 77.2866Z" fill="white"/>
</g>
<defs>
<clipPath id="clip0_1_38">
<rect width="42.4236" height="55.5311" fill="white" transform="translate(27.5753 21.7556)"/>
</clipPath>
</defs>
</svg>
